<svg xmlns="http://www.w3.org/2000/svg" viewBox="0 0 282 85.99"><defs><style>.cls-1{fill:#fff;}</style></defs><g id="Layer_2" data-name="Layer 2"><g id="Layer_1-2" data-name="Layer 1"><path class="cls-1" d="M27.3,5.51c2.8,3.66,2.49,5.14,2.49,10.29,0,2.26.47,4.21-1.87,4.37-1.79.08-3.59.08-5.46,0-2.1-.16-1.56,0-1.79-5.46-.08-2.58-2-5.15-4.68-4.76s-3.75,3.35-3.75,7.1V38.88a13.31,13.31,0,0,0,.63,4.45c1.17,3.82,5.38,4,7.25.55a1.83,1.83,0,0,1,.24-.55c.77-4.52,1.56-10-1-10.37a2,2,0,0,1-1.87-2.34c0-2.73,0-4.37.08-4.84a1.82,1.82,0,0,1,1.95-1.87,41.24,41.24,0,0,1,4.13-.08c2.11,0,3.51,0,4.21.08a2,2,0,0,1,1.41.47c.62.62.62,1.48.62,3.51,0,16.84,1.64,20.59-4.6,25.66A13.27,13.27,0,0,1,16.85,56,13.57,13.57,0,0,1,4.29,47.46a11.63,11.63,0,0,1-.55-4.21v-12L.62,29.53A1.26,1.26,0,0,1,0,28.43a1.17,1.17,0,0,1,.62-1.09l3.12-1.79c0-6,0-10.14-.07-12.32C3.67,7.38,8.35.67,15.44.75h2.81A11.37,11.37,0,0,1,27.3,5.51Zm6.47,26.28c0-2,0-2.89-.62-3.51a2,2,0,0,0-1.41-.47h-.47C31.82,49,31.82,50,26.13,54.64,23.24,57.06,19,57.91,15,57.37a10.52,10.52,0,0,1-1.32-.24c-.7-.15-.7.39-.24.63a6.3,6.3,0,0,0,1.25.7,10.69,10.69,0,0,0,4.21.94,13.56,13.56,0,0,0,8.74-2.89C33.85,51.44,33.77,50,33.77,31.79Zm-17.63,11V21c0-3.43-.23-8,1.88-9a2.29,2.29,0,0,0-1.8-.55c-1.64.24-2.57,2.11-2.57,5.7V38.88a11.09,11.09,0,0,0,.54,4v.08a2.45,2.45,0,0,0,2,2A17.24,17.24,0,0,1,16.14,42.78ZM30.57,8.7c.7,2.42.63,3,.63,7.1,0,2.11.78,5.54-3.2,5.77-.7,0-1.33.08-1.95.08H24.64v.78c1.57,0,2.66,0,3.28.08a3.93,3.93,0,0,1,2.34.85,4.86,4.86,0,0,1,.55.71h.54c2.34,0,2.34-2.11,2.34-4.37V17.13A11.79,11.79,0,0,0,31.2,9.4Z"/><path class="cls-1" d="M64.42,48a29.92,29.92,0,0,1-.08,5.85c-.16,1.87-2,1.71-3.66,1.71H43.75c-1.09,0-2.42,0-3.12-.62S40,53.31,40,50.43V31.16l-3.12-1.79a1.16,1.16,0,0,1-.62-1.09,1.23,1.23,0,0,1,.62-1.09L40,25.39V5c0-3.9.08-4.06,3.9-4.06H60.75a6,6,0,0,1,3.2.55c.7.7.62,4.6.47,6.39s-1.8,1.72-4.06,1.72H52.64c-2.57.08-3.27.86-3.43,3.27-.08,2.66-.08,5.23.08,7.73A3.55,3.55,0,0,0,50,22.9c.94.85,2.65.78,5.07.78a27.25,27.25,0,0,1,2.73.07c1.87,0,2.34.55,2.42,2.42a33.68,33.68,0,0,1-.08,4.92c0,1.09-.62,1.63-1.72,1.71s-3,.08-5.22.08c-3,0-3.74.39-3.9,3.74a55.14,55.14,0,0,0-.08,6.4c.16,2.49.86,3.27,3.43,3.35h7.65C62.62,46.45,64.18,46.22,64.42,48Zm3.66,3.9c0-1.33-.93-1.56-2.18-1.56A18.43,18.43,0,0,1,65.74,54c-.31,3.2-2.1,3-5.06,3H43.91a2.65,2.65,0,0,0,.62,1.87c.7.62,2,.62,3.12.62l15-.07C67.46,59.32,68.08,57.84,68.08,51.91ZM61.53,31.16c-.15,2.65-.39,3.12-3,3.12h-5.3c-1.72,0-2.42.7-2.5,2.42a52.72,52.72,0,0,0-.07,6.24c.07,1.79.31,2,2,2H53c0-1.64-.07-4,0-5.31.16-3.35.16-2.88,3.12-2.88,2.26,0,4.06.08,5.23,0a2.37,2.37,0,0,0,2.34-1.87,34.17,34.17,0,0,0,.07-4.84c-.07-1.87-.23-2.42-2.1-2.42C61.69,28.9,61.61,30.07,61.53,31.16ZM66,8c-.08,3.35-2.19,3-5.62,3H52.64c-1.64.08-1.87.24-2,2-.07,2.65-.07,4.76,0,7.57.08,1.71.39,1.63,2.42,1.71-.08-1.79-.08-4.29,0-6.16.16-2.42.08-2.57,2.65-2.57h7.57c2.65,0,4.36-.7,4.52-2.89.16-1.79.31-4.52-.39-5.22A2.27,2.27,0,0,0,66,5Z"/><path class="cls-1" d="M98.73,48a29.18,29.18,0,0,1-.07,5.85c-.16,1.87-2,1.71-3.67,1.71H78.07c-1.1,0-2.42,0-3.12-.62s-.63-1.64-.63-4.52V31.16L71.2,29.37a1.16,1.16,0,0,1-.62-1.09,1.23,1.23,0,0,1,.62-1.09l3.12-1.8V5c0-3.9.08-4.06,3.9-4.06H95.07a6,6,0,0,1,3.2.55c.7.7.62,4.6.46,6.39s-1.79,1.72-4,1.72H87c-2.58.08-3.28.86-3.43,3.27-.08,2.66-.08,5.23.07,7.73a3.55,3.55,0,0,0,.71,2.26c.93.85,2.65.78,5.07.78a27,27,0,0,1,2.72.07c1.88,0,2.34.55,2.42,2.42a33.68,33.68,0,0,1-.08,4.92c0,1.09-.62,1.63-1.71,1.71s-3,.08-5.23.08c-3,0-3.74.39-3.9,3.74a57.67,57.67,0,0,0-.07,6.4c.15,2.49.85,3.27,3.43,3.35H94.6C96.94,46.45,98.5,46.22,98.73,48Zm3.67,3.9c0-1.33-.94-1.56-2.19-1.56a19.23,19.23,0,0,1-.15,3.66c-.31,3.2-2.11,3-5.07,3H78.22a2.65,2.65,0,0,0,.63,1.87c.7.62,2,.62,3.12.62l15-.07C101.78,59.32,102.4,57.84,102.4,51.91ZM95.85,31.16c-.16,2.65-.39,3.12-3,3.12H87.5c-1.71,0-2.41.7-2.49,2.42a50.29,50.29,0,0,0-.08,6.24c.08,1.79.31,2,2,2h.39c0-1.64-.08-4,0-5.31.15-3.35.15-2.88,3.12-2.88,2.26,0,4,.08,5.22,0A2.37,2.37,0,0,0,98,34.91a32.77,32.77,0,0,0,.08-4.84C98,28.2,97.88,27.65,96,27.65,96,28.9,95.93,30.07,95.85,31.16ZM100.29,8c-.08,3.35-2.18,3-5.61,3H87c-1.64.08-1.87.24-1.95,2-.08,2.65-.08,4.76,0,7.57.08,1.71.39,1.63,2.42,1.71-.08-1.79-.08-4.29,0-6.16.15-2.42.07-2.57,2.65-2.57h7.56c2.65,0,4.37-.7,4.53-2.89.15-1.79.31-4.52-.39-5.22A2.31,2.31,0,0,0,100.29,5Z"/><path class="cls-1" d="M130.55,55.57a4,4,0,0,1-4.36-3c-.08-.31-.63-1.79-1.72-4.6-1.87-4.76-3-7.57-3.28-8.27a9,9,0,0,0-1.32-2.42,1.15,1.15,0,0,0-1.64,0,4.92,4.92,0,0,0-.94,3.2c0-.15,0,2.42-.07,7.64v5.23c-.16,1.56-.63,2-2.11,2.18s-3,0-4.52-.07-1.8-.55-1.87-2a23.26,23.26,0,0,1-.08-2.81V31.16l-3.12-1.79a1.34,1.34,0,0,1-.63-1.09,1.37,1.37,0,0,1,.63-1.17l3.12-1.8v-20c0-2.42-.16-4.21,1.71-4.29s3.44-.08,5.23,0,1.64,1.79,1.64,3.67V7.85a18.88,18.88,0,0,0,.39,5.45,1.07,1.07,0,0,0,1.71.47,6.76,6.76,0,0,0,1.48-2.26c.47-.86,1.1-2.11,1.88-3.66.93-1.72,1.48-3,1.87-3.75.93-1.64,1.32-3,2.73-3a42.18,42.18,0,0,1,7.64,0,.81.81,0,0,1,.62,1.17c-.23.62-.62,1.4-1,2.18-1,2.11-3.59,7.18-7.57,15.13a12.74,12.74,0,0,1-1,1.88,3.91,3.91,0,0,0-.08,3.58c.55,1.25,1.25,2.81,2,4.76,2.81,6.94,5.77,14.35,9,22.15a10.79,10.79,0,0,1,.7,2.1,1.16,1.16,0,0,1-.86,1.41,25.84,25.84,0,0,1-4,.15ZM119.71,40l1.48,3.66v.78c0-.08,0,2.5-.07,7.64v5.23c-.16,1.56-.63,2-2.11,2.18s-3,0-4.52-.07c-1.33,0-1.8-.55-1.87-1.95a1,1,0,0,0-.08-.47h2.65c2.18-.24,3.2-1.25,3.43-3.51V48.16l.16-7.09a7.51,7.51,0,0,1,.07-1.33C118.93,39.2,119.24,38.88,119.71,40Zm-1.17-28.47c0-.86.08-2.26.08-3.66V5h.86c1.56.08,1.64,1.33,1.64,2.89-.39.85-1.41,2.72-2,3.82C118.93,12.13,118.54,12.06,118.54,11.51ZM139.91,59.4h-5.46c-1.95,0-3.35-.55-4.21-2.42h2.5c7.09,0,7.8.15,5.46-5.62-3.2-7.8-6.16-15.21-9-22.15-.78-1.95-1.56-3.51-2.11-4.75A2.65,2.65,0,0,1,127.2,22c6.47-12.79,7.17-14.12,8.58-17l.15-.24h1.64c.55,0,.86.71.63,1.25s-.63,1.41-1,2.19c-1,2.1-3,5.69-6.94,13.64-.78,1.48-.78,1.48.86,5.46.54,1.25,1.87,4.37,2.65,6.32,2.81,6.94,5.46,13.49,8.66,21.29C143.73,58,143,59.4,139.91,59.4Z"/><path class="cls-1" d="M161.67,27.11a1.23,1.23,0,0,1,.62,1.09,1.15,1.15,0,0,1-.62,1.09l-3.12,1.8V51.6c0,3.9-.16,4-4,4-1.48,0-2.57,0-3.35-.07-2.11-.16-1.87-2.11-1.87-4.29V31.09l-3.12-1.8a1.09,1.09,0,0,1-.7-1.09,1.16,1.16,0,0,1,.7-1.09l3.12-1.8V4.73c0-1.88.15-3.05.47-3.36.78-.78,5.45-.62,6.94-.54,2.1.23,1.79,1.95,1.79,4.6V25.31Zm3.9,3.9-2.34-1.33a2.28,2.28,0,0,1-.86.86L160,31.87V51.6C160,57,160,57,154.57,57h-1.32c.08,1.32.39,2.34,1.87,2.42.78.07,1.87.07,3.35.07,3.2,0,4-.78,4-4V35l3.12-1.79a1.15,1.15,0,0,0,.62-1.09A1.23,1.23,0,0,0,165.57,31ZM160,24.53l2.42,1.41h.08V9.33c0-2.65.31-4.37-1.79-4.6H160Z"/><path class="cls-1" d="M197.78,48a29.92,29.92,0,0,1-.08,5.85c-.16,1.87-2,1.71-3.66,1.71H177.11c-1.09,0-2.42,0-3.12-.62s-.62-1.64-.62-4.52V31.16l-3.12-1.79a1.16,1.16,0,0,1-.63-1.09,1.24,1.24,0,0,1,.63-1.09l3.12-1.8V5c0-3.9.08-4.06,3.9-4.06h16.84a6,6,0,0,1,3.2.55c.7.7.62,4.6.47,6.39s-1.8,1.72-4.06,1.72H186c-2.57.08-3.27.86-3.43,3.27-.08,2.66-.08,5.23.08,7.73a3.55,3.55,0,0,0,.7,2.26c.94.85,2.65.78,5.07.78a27.25,27.25,0,0,1,2.73.07c1.87,0,2.34.55,2.42,2.42a33.68,33.68,0,0,1-.08,4.92c0,1.09-.62,1.63-1.72,1.71s-3,.08-5.22.08c-3,0-3.75.39-3.9,3.74a55.14,55.14,0,0,0-.08,6.4c.16,2.49.86,3.27,3.43,3.35h7.65C196,46.45,197.54,46.22,197.78,48Zm3.66,3.9c0-1.33-.93-1.56-2.18-1.56A18.43,18.43,0,0,1,199.1,54c-.31,3.2-2.1,3-5.06,3H177.27a2.65,2.65,0,0,0,.62,1.87c.7.62,2,.62,3.12.62l15-.07C200.82,59.32,201.44,57.84,201.44,51.91Zm-6.55-20.75c-.15,2.65-.39,3.12-3,3.12h-5.3c-1.72,0-2.42.7-2.5,2.42a54.58,54.58,0,0,0-.08,6.24c.08,1.79.32,2,2,2h.39c0-1.64-.08-4,0-5.31.16-3.35.16-2.88,3.12-2.88,2.26,0,4.06.08,5.23,0a2.37,2.37,0,0,0,2.34-1.87,34.17,34.17,0,0,0,.07-4.84c-.07-1.87-.23-2.42-2.1-2.42C195.05,28.9,195,30.07,194.89,31.16ZM199.34,8c-.08,3.35-2.19,3-5.62,3H186c-1.64.08-1.87.24-1.95,2-.08,2.65-.08,4.76,0,7.57.08,1.71.39,1.63,2.42,1.71-.08-1.79-.08-4.29,0-6.16.16-2.42.08-2.57,2.65-2.57h7.57c2.65,0,4.36-.7,4.52-2.89.16-1.79.31-4.52-.39-5.22A2.27,2.27,0,0,0,199.34,5Z"/><path class="cls-1" d="M229.6,55.57a4,4,0,0,1-4.37-3c-.08-.31-.62-1.79-1.72-4.6-1.87-4.76-3-7.57-3.27-8.27a9.27,9.27,0,0,0-1.33-2.42,1.14,1.14,0,0,0-1.63,0,4.87,4.87,0,0,0-.94,3.2c0-.15,0,2.42-.08,7.64v5.23c-.15,1.56-.62,2-2.1,2.18s-3,0-4.53-.07c-1.32,0-1.79-.55-1.87-2a23.26,23.26,0,0,1-.08-2.81V31.16l-3.12-1.79a1.33,1.33,0,0,1-.62-1.09,1.36,1.36,0,0,1,.62-1.17l3.12-1.8v-20c0-2.42-.15-4.21,1.72-4.29,1.71-.08,3.43-.08,5.22,0s1.64,1.79,1.64,3.67V7.85a18.88,18.88,0,0,0,.39,5.45,1.07,1.07,0,0,0,1.72.47,6.92,6.92,0,0,0,1.48-2.26c.47-.86,1.09-2.11,1.87-3.66.94-1.72,1.48-3,1.87-3.75.94-1.64,1.33-3,2.73-3a42.18,42.18,0,0,1,7.64,0,.82.82,0,0,1,.63,1.17c-.24.62-.63,1.4-1,2.18-1,2.11-3.58,7.18-7.56,15.13a14.66,14.66,0,0,1-1,1.88,3.85,3.85,0,0,0-.08,3.58c.54,1.25,1.25,2.81,2,4.76,2.8,6.94,5.77,14.35,9,22.15a10.83,10.83,0,0,1,.71,2.1,1.18,1.18,0,0,1-.86,1.41,26,26,0,0,1-4,.15ZM218.76,40l1.48,3.66v.78c0-.08,0,2.5-.08,7.64v5.23c-.16,1.56-.62,2-2.11,2.18s-3,0-4.52-.07c-1.32,0-1.79-.55-1.87-1.95a1,1,0,0,0-.08-.47h2.65c2.19-.24,3.2-1.25,3.44-3.51V48.16l.15-7.09a6.58,6.58,0,0,1,.08-1.33C218,39.2,218.29,38.88,218.76,40Zm-1.17-28.47c0-.86.08-2.26.08-3.66V5h.85c1.56.08,1.64,1.33,1.64,2.89-.39.85-1.4,2.72-1.95,3.82C218,12.13,217.59,12.06,217.59,11.51ZM239,59.4H233.5c-1.95,0-3.36-.55-4.21-2.42h2.49c7.1,0,7.8.15,5.46-5.62-3.2-7.8-6.16-15.21-9-22.15-.78-1.95-1.56-3.51-2.1-4.75a2.65,2.65,0,0,1,.07-2.42c6.48-12.79,7.18-14.12,8.58-17L235,4.8h1.64c.54,0,.85.71.62,1.25a23.43,23.43,0,0,1-1,2.19c-1,2.1-3,5.69-6.94,13.64-.78,1.48-.78,1.48.85,5.46.55,1.25,1.87,4.37,2.65,6.32,2.81,6.94,5.46,13.49,8.66,21.29C242.78,58,242,59.4,239,59.4Z"/><path class="cls-1" d="M277.48,27.19a1.15,1.15,0,0,1,.63,1.17,1.18,1.18,0,0,1-.63,1.09l-3.12,1.79.08,9.59a38.92,38.92,0,0,1-.86,6.09,5.45,5.45,0,0,1-.78,2c-6.16,9.91-19.1,9.29-24.1-.07a12.83,12.83,0,0,1-1.32-6.24V31.24l-3.12-1.79a1.17,1.17,0,0,1-.62-1.09,1.21,1.21,0,0,1,.62-1.17l3.12-1.8c.08-5.69,0-9.82,0-12-.16-4.6,2-8.5,6.55-11.77A5.89,5.89,0,0,1,256.74.36c6.16-.94,10.06-.08,13.33,3s4.29,7.49,4.29,11.62V25.39ZM264.15,44a7.61,7.61,0,0,0,.46-3V14.71a9,9,0,0,0-.39-2.73c-1.24-3.82-7-3.36-7.56.62a18.82,18.82,0,0,0-.08,2.5V40.52a8.91,8.91,0,0,0,.39,3.36A3.91,3.91,0,0,0,264.15,44Zm17.23-12.94-2.18-1.25a5.29,5.29,0,0,1-1,.78L275.77,32l.07,8.81a21.68,21.68,0,0,1-1.87,8.9,16.21,16.21,0,0,1-15.91,7.64c-.62-.08-.85.62-.23.78,10.06,2.8,20.59-1.87,20.51-17.08l-.08-5.93,3.12-1.79a1.17,1.17,0,0,0,.62-1.09A1.14,1.14,0,0,0,281.38,31.09ZM258.06,12.76c-.07,1.09-.07,1.4-.07,2.34V40.52a8.75,8.75,0,0,0,.23,2.81,2.39,2.39,0,0,0,2.65,1.56,10.77,10.77,0,0,1-.39-3.43V16a18.73,18.73,0,0,1,.08-2.49,3.49,3.49,0,0,1,1.32-2.34C260.56,10.34,258.22,10.65,258.06,12.76Zm17.71,11.85L278.26,26v-7.1a16.66,16.66,0,0,0-2.34-9.2c-.39-.7-.86-.39-.7.31a20.8,20.8,0,0,1,.55,5Z"/><path class="cls-1" d="M54.51,81.07a9.21,9.21,0,0,0,1.9-.21,11,11,0,0,0,1.86-.56V82a13.4,13.4,0,0,1-2.14.67,10.32,10.32,0,0,1-2,.19q-3.16,0-4.47-1.64c-.86-1.09-1.29-2.92-1.29-5.47s.5-4.24,1.5-5.38,2.61-1.7,4.81-1.7c.67,0,1.28,0,1.8,0a11.12,11.12,0,0,1,1.43.16v1.64c-.51,0-1-.09-1.55-.12s-1.08,0-1.68,0a4.16,4.16,0,0,0-3.43,1.22,6.84,6.84,0,0,0-1,4.17,7.23,7.23,0,0,0,.88,4.17C51.8,80.67,52.9,81.07,54.51,81.07Z"/><path class="cls-1" d="M69.84,77.19c0,2.06-.38,3.51-1.13,4.36a5,5,0,0,1-3.88,1.28c-1.9,0-3.21-.41-3.94-1.24s-1.1-2.28-1.1-4.4.38-3.52,1.13-4.36,2.06-1.27,3.91-1.27S68,72,68.75,72.8,69.84,75.08,69.84,77.19Zm-8.25,0a5.41,5.41,0,0,0,.64,3.2,3.3,3.3,0,0,0,2.6.78,3.15,3.15,0,0,0,2.55-.82A5.34,5.34,0,0,0,68,77.17a5.53,5.53,0,0,0-.63-3.2,3.25,3.25,0,0,0-2.58-.78,3.2,3.2,0,0,0-2.58.82A5.3,5.3,0,0,0,61.59,77.17Z"/><path class="cls-1" d="M72.88,73.32H71.25V71.78h1.63v-.26a3.83,3.83,0,0,1,.92-2.81,3.94,3.94,0,0,1,2.84-.91c.32,0,.64,0,1,0a7.78,7.78,0,0,1,.9.13v1.54a3.77,3.77,0,0,0-.72-.1c-.3,0-.59,0-.89,0a2.6,2.6,0,0,0-1.74.45,2.2,2.2,0,0,0-.48,1.64v.3h3.5v1.54h-3.5v9.33h-1.8Z"/><path class="cls-1" d="M80.6,73.32H79V71.78H80.6v-.26a3.83,3.83,0,0,1,.92-2.81,3.94,3.94,0,0,1,2.84-.91c.32,0,.64,0,1,0a7.78,7.78,0,0,1,.9.13v1.54a3.77,3.77,0,0,0-.72-.1c-.3,0-.59,0-.89,0a2.6,2.6,0,0,0-1.74.45,2.2,2.2,0,0,0-.48,1.64v.3h3.5v1.54H82.4v9.33H80.6Z"/><path class="cls-1" d="M95.84,80.54v1.52a6.89,6.89,0,0,1-1.68.54,11.33,11.33,0,0,1-2.26.23,4.51,4.51,0,0,1-3.65-1.32,6.86,6.86,0,0,1-1.1-4.36,6.44,6.44,0,0,1,1.15-4.26A4.59,4.59,0,0,1,92,71.56a4.49,4.49,0,0,1,3.34,1,4.89,4.89,0,0,1,1,3.48c0,.3,0,.57,0,.82s0,.55-.09.9H89a3.81,3.81,0,0,0,.73,2.57,3.27,3.27,0,0,0,2.48.77,11.52,11.52,0,0,0,2-.17A8.41,8.41,0,0,0,95.84,80.54Zm-1.19-4.69A2.27,2.27,0,0,0,92,73.19a3.13,3.13,0,0,0-2.3.69A3.48,3.48,0,0,0,89,76.31h5.65s0-.09,0-.2S94.65,75.91,94.65,75.85Z"/><path class="cls-1" d="M106.79,80.54v1.52a6.89,6.89,0,0,1-1.68.54,11.3,11.3,0,0,1-2.25.23,4.5,4.5,0,0,1-3.65-1.32,6.8,6.8,0,0,1-1.1-4.36,6.5,6.5,0,0,1,1.14-4.26,4.59,4.59,0,0,1,3.65-1.33,4.51,4.51,0,0,1,3.35,1,4.94,4.94,0,0,1,1,3.48c0,.3,0,.57,0,.82s0,.55-.09.9H99.93a3.81,3.81,0,0,0,.74,2.57,3.25,3.25,0,0,0,2.47.77,11.52,11.52,0,0,0,2-.17A8.41,8.41,0,0,0,106.79,80.54Zm-1.18-4.69a2.9,2.9,0,0,0-.64-2,2.86,2.86,0,0,0-2.07-.61,3.15,3.15,0,0,0-2.3.69,3.53,3.53,0,0,0-.67,2.43h5.66s0-.09,0-.2S105.61,75.91,105.61,75.85Z"/><path class="cls-1" d="M123.78,76.53v5.09a5.8,5.8,0,0,1-2,.9,11.52,11.52,0,0,1-2.76.31,5.76,5.76,0,0,1-4.67-1.77c-1-1.19-1.49-3-1.49-5.6a7.61,7.61,0,0,1,1.48-5.13,5.56,5.56,0,0,1,4.44-1.69,4.9,4.9,0,0,1,3.26,1,3.38,3.38,0,0,1,1.16,2.73,4.86,4.86,0,0,1-.2,1.48,3.15,3.15,0,0,1-.61,1.16H127v1.54Zm-5.13-6.2a3.6,3.6,0,0,0-3,1.16,6.2,6.2,0,0,0-.91,3.81v.16a14.6,14.6,0,0,0,5.13-.71,2.31,2.31,0,0,0,1.53-2.28,1.91,1.91,0,0,0-.71-1.58A3.28,3.28,0,0,0,118.65,70.33ZM119,81.07a10.78,10.78,0,0,0,1.82-.14,3.35,3.35,0,0,0,1.18-.37V75.37a5.93,5.93,0,0,1-2.67,1.21,23.22,23.22,0,0,1-4.53.44,5,5,0,0,0,1.22,3.1A4.16,4.16,0,0,0,119,81.07Z"/><path class="cls-1" d="M141.48,77H137.9V75.35h5.34V82a9.7,9.7,0,0,1-2.2.56,17.24,17.24,0,0,1-2.88.28c-2.27,0-3.85-.54-4.72-1.61s-1.31-2.9-1.31-5.48q0-3.64,1.57-5.38t4.9-1.72c.76,0,1.49,0,2.19,0a14.64,14.64,0,0,1,1.7.17v1.65c-.58-.06-1.22-.11-1.9-.13s-1.34,0-2,0a4.37,4.37,0,0,0-3.53,1.23,6.63,6.63,0,0,0-1,4.18,15,15,0,0,0,.16,2.43,4.3,4.3,0,0,0,.54,1.58A2.44,2.44,0,0,0,136,80.81a6.6,6.6,0,0,0,2.37.32,11.64,11.64,0,0,0,1.45-.1,14.93,14.93,0,0,0,1.65-.27Z"/><path class="cls-1" d="M148.17,82.83a3.26,3.26,0,0,1-2.45-.81,3.53,3.53,0,0,1-.78-2.54,3,3,0,0,1,.94-2.49,5.27,5.27,0,0,1,3.21-.74c.5,0,1,0,1.48.06a13,13,0,0,1,1.36.2V75.46a2.18,2.18,0,0,0-.61-1.74,3.08,3.08,0,0,0-2-.53c-.67,0-1.26,0-1.78.08a12,12,0,0,0-1.54.25V72a12.09,12.09,0,0,1,1.8-.31c.61-.06,1.3-.09,2.08-.09a4,4,0,0,1,2.9.92,3.75,3.75,0,0,1,.94,2.82v7.35h-1.65l-.08-1H152a5.31,5.31,0,0,1-1.7.86A6.89,6.89,0,0,1,148.17,82.83Zm1.12-5.11a4.12,4.12,0,0,0-2.08.37,1.38,1.38,0,0,0-.58,1.28,1.8,1.8,0,0,0,.48,1.4,2.36,2.36,0,0,0,1.59.43,6.12,6.12,0,0,0,1.76-.27,4.78,4.78,0,0,0,1.47-.66V77.94c-.48-.07-.93-.13-1.35-.16S149.73,77.72,149.29,77.72Z"/><path class="cls-1" d="M158.35,82.65h-1.8V71.78h1.65l.09.84h.06a8.78,8.78,0,0,1,1.76-.8,5.19,5.19,0,0,1,1.59-.26,4,4,0,0,1,1.58.29,2.24,2.24,0,0,1,1,.86h.07a7.8,7.8,0,0,1,1.86-.85,6.68,6.68,0,0,1,2-.3,3.14,3.14,0,0,1,2.36.83,3.33,3.33,0,0,1,.81,2.43v7.83h-1.81V75a1.81,1.81,0,0,0-.5-1.4,2.4,2.4,0,0,0-1.61-.45,4.75,4.75,0,0,0-1.3.19,6.42,6.42,0,0,0-1.36.54,2.12,2.12,0,0,1,0,.44c0,.14,0,.3,0,.46v7.83h-1.8V75a1.78,1.78,0,0,0-.51-1.4,2.35,2.35,0,0,0-1.6-.45,3.86,3.86,0,0,0-1.17.19,7.47,7.47,0,0,0-1.43.63Z"/><path class="cls-1" d="M182.35,80.54v1.52a6.89,6.89,0,0,1-1.68.54,11.33,11.33,0,0,1-2.26.23,4.51,4.51,0,0,1-3.65-1.32,6.86,6.86,0,0,1-1.1-4.36,6.44,6.44,0,0,1,1.15-4.26,4.59,4.59,0,0,1,3.65-1.33,4.49,4.49,0,0,1,3.34,1,4.89,4.89,0,0,1,1,3.48c0,.3,0,.57,0,.82s0,.55-.09.9h-7.21a3.81,3.81,0,0,0,.73,2.57,3.27,3.27,0,0,0,2.48.77,11.52,11.52,0,0,0,2-.17A8.41,8.41,0,0,0,182.35,80.54Zm-1.19-4.69a2.27,2.27,0,0,0-2.7-2.66,3.13,3.13,0,0,0-2.3.69,3.48,3.48,0,0,0-.67,2.43h5.65s0-.09,0-.2S181.16,75.91,181.16,75.85Z"/><path class="cls-1" d="M194.36,76.86,191,76.07a3.36,3.36,0,0,1-2-1.13,3.6,3.6,0,0,1-.62-2.23,3.76,3.76,0,0,1,1.2-3.08,5.8,5.8,0,0,1,3.73-1,15.59,15.59,0,0,1,1.9.1,10,10,0,0,1,1.57.29v1.7a13.32,13.32,0,0,0-1.76-.31,16,16,0,0,0-1.73-.09,4.21,4.21,0,0,0-2.38.5,2,2,0,0,0-.68,1.74,1.87,1.87,0,0,0,.32,1.2,1.78,1.78,0,0,0,1,.59l3.32.79a4.11,4.11,0,0,1,2.35,1.18,3.8,3.8,0,0,1,.58,2.34,3.88,3.88,0,0,1-1.18,3.21,5.92,5.92,0,0,1-3.73,1,18,18,0,0,1-2.58-.18,9.13,9.13,0,0,1-2-.46V80.43a15.8,15.8,0,0,0,2.2.47,16.78,16.78,0,0,0,2.35.17,4.08,4.08,0,0,0,2.31-.49,2.19,2.19,0,0,0,.66-1.87,2,2,0,0,0-.31-1.24A2.34,2.34,0,0,0,194.36,76.86Z"/><path class="cls-1" d="M201.8,82.65H200V68h1.81v4.64a9.16,9.16,0,0,1,2-.82,6.9,6.9,0,0,1,1.94-.28,3.69,3.69,0,0,1,2.72.91,3.56,3.56,0,0,1,.91,2.66v7.52h-1.8v-7.3a2.11,2.11,0,0,0-.58-1.64,2.67,2.67,0,0,0-1.82-.52,6.69,6.69,0,0,0-1.68.22,7.87,7.87,0,0,0-1.66.62Z"/><path class="cls-1" d="M221.7,77.19c0,2.06-.37,3.51-1.13,4.36a5,5,0,0,1-3.88,1.28c-1.89,0-3.21-.41-3.94-1.24s-1.1-2.28-1.1-4.4.38-3.52,1.13-4.36,2.06-1.27,3.91-1.27,3.2.41,3.92,1.24S221.7,75.08,221.7,77.19Zm-8.25,0a5.49,5.49,0,0,0,.64,3.2,3.3,3.3,0,0,0,2.6.78,3.15,3.15,0,0,0,2.55-.82,5.34,5.34,0,0,0,.66-3.16,5.53,5.53,0,0,0-.63-3.2,3.25,3.25,0,0,0-2.58-.78,3.2,3.2,0,0,0-2.58.82A5.3,5.3,0,0,0,213.45,77.17Z"/><path class="cls-1" d="M225.9,86h-1.8V71.78h1.56l.11,1h.07a4.81,4.81,0,0,1,1.63-.88,6.62,6.62,0,0,1,2-.31,3.67,3.67,0,0,1,3.18,1.32,7.49,7.49,0,0,1,1,4.31,6.45,6.45,0,0,1-1.16,4.32,5,5,0,0,1-3.89,1.32,9.63,9.63,0,0,1-1.49-.11,5.72,5.72,0,0,1-1.18-.33Zm5.92-8.8a5.64,5.64,0,0,0-.63-3.12,2.67,2.67,0,0,0-2.34-.88,5.28,5.28,0,0,0-1.55.23,5.81,5.81,0,0,0-1.4.67v6.62A5.71,5.71,0,0,0,227,81a6.54,6.54,0,0,0,1.31.11,3.55,3.55,0,0,0,2.76-.84A5,5,0,0,0,231.82,77.19Z"/></g></g></svg>